<?xml version="1.0" encoding="UTF-8"?>
<svg xmlns="http://www.w3.org/2000/svg" xmlns:xlink="http://www.w3.org/1999/xlink" width="325.984" height="325.984" viewBox="0 0 325.984 325.984">
<defs>
<clipPath id="clip-0">
<path clip-rule="nonzero" d="M 0 294 L 325.984375 294 L 325.984375 325.984375 L 0 325.984375 Z M 0 294 "/>
</clipPath>
</defs>
<path fill-rule="nonzero" fill="rgb(96.682739%, 91.503906%, 10.540771%)" fill-opacity="1" d="M 0 325.984375 L 325.984375 325.984375 L 325.984375 0 L 0 0 Z M 0 325.984375 "/>
<g clip-path="url(#clip-0)">
<path fill-rule="nonzero" fill="rgb(29.02832%, 69.143677%, 90.763855%)" fill-opacity="1" d="M 0 325.984375 L 325.984375 325.984375 L 325.984375 294.09375 L 0 294.09375 Z M 0 325.984375 "/>
</g>
<path fill-rule="nonzero" fill="rgb(17.060852%, 21.585083%, 51.881409%)" fill-opacity="1" d="M 221.847656 114.925781 C 221.894531 93.824219 195.714844 76.566406 163.375 76.492188 C 131.035156 76.421875 104.78125 93.5625 104.734375 114.664062 C 104.730469 115.207031 104.722656 116.714844 104.722656 116.90625 C 104.667969 139.292969 127.542969 157.472656 163.183594 157.550781 C 199.042969 157.632812 221.789062 139.558594 221.839844 117.171875 Z M 221.847656 114.925781 "/>
<path fill-rule="nonzero" fill="rgb(29.02832%, 69.143677%, 90.763855%)" fill-opacity="1" d="M 219.605469 114.902344 C 219.558594 134.792969 194.3125 150.863281 163.21875 150.792969 C 132.121094 150.726562 106.949219 134.542969 106.996094 114.648438 C 107.039062 94.753906 132.28125 78.6875 163.378906 78.753906 C 194.476562 78.824219 219.648438 95.007812 219.605469 114.902344 "/>
<path fill-rule="nonzero" fill="rgb(100%, 100%, 100%)" fill-opacity="1" d="M 144.628906 103.371094 C 144.597656 103.425781 144.035156 104.007812 144.398438 104.472656 C 145.285156 105.609375 148.027344 106.269531 150.804688 105.652344 C 152.457031 105.285156 154.578125 103.605469 156.636719 101.980469 C 158.863281 100.21875 161.074219 98.457031 163.292969 97.757812 C 165.640625 97.015625 167.144531 97.339844 168.140625 97.640625 C 169.230469 97.96875 170.511719 98.691406 172.550781 100.230469 C 176.398438 103.136719 191.859375 116.691406 194.53125 119.035156 C 196.6875 118.066406 206.277344 113.964844 219.300781 111.121094 C 218.1875 104.179688 213.980469 97.820312 207.589844 92.605469 C 198.652344 96.335938 187.746094 98.265625 177.09375 93.03125 C 177.035156 93.011719 171.273438 90.265625 165.578125 90.386719 C 157.117188 90.566406 153.441406 94.21875 149.554688 98.085938 Z M 144.628906 103.371094 "/>
<path fill-rule="nonzero" fill="rgb(100%, 100%, 100%)" fill-opacity="1" d="M 193.898438 120.503906 C 193.714844 120.34375 175.71875 104.523438 171.636719 101.441406 C 169.277344 99.664062 167.964844 99.207031 166.585938 99.03125 C 165.867188 98.933594 164.875 99.066406 164.179688 99.253906 C 162.277344 99.765625 159.785156 101.421875 157.578125 103.167969 C 155.289062 104.980469 153.128906 106.691406 151.132812 107.132812 C 148.578125 107.699219 145.460938 107.015625 144.039062 106.050781 C 143.464844 105.664062 143.058594 105.214844 142.867188 104.757812 C 142.34375 103.539062 143.3125 102.566406 143.472656 102.40625 L 148.460938 97.03125 C 149.042969 96.457031 149.625 95.882812 150.222656 95.3125 C 148.617188 95.519531 147.132812 95.925781 145.6875 96.324219 C 143.882812 96.828125 142.144531 97.304688 140.390625 97.300781 C 139.660156 97.300781 135.738281 96.648438 134.992188 96.441406 C 130.492188 95.199219 126.539062 93.992188 120.644531 91.222656 C 113.554688 96.472656 108.808594 103.046875 107.429688 110.296875 C 108.445312 110.566406 110.082031 111.058594 110.765625 111.214844 C 126.769531 114.808594 131.75 118.488281 132.652344 119.253906 C 133.632812 118.167969 135.046875 117.480469 136.625 117.484375 C 138.398438 117.488281 139.992188 118.386719 140.960938 119.761719 C 141.875 119.039062 143.140625 118.421875 144.777344 118.429688 C 145.519531 118.429688 146.289062 118.566406 147.066406 118.835938 C 148.871094 119.457031 149.800781 120.664062 150.28125 121.753906 C 150.886719 121.480469 151.632812 121.28125 152.511719 121.285156 C 153.371094 121.285156 154.269531 121.484375 155.171875 121.878906 C 158.121094 123.152344 158.574219 126.050781 158.300781 128.238281 C 158.511719 128.214844 158.722656 128.203125 158.9375 128.203125 C 162.4375 128.214844 165.277344 131.066406 165.269531 134.566406 C 165.265625 135.652344 164.988281 136.667969 164.503906 137.5625 C 165.453125 138.101562 167.878906 139.316406 170.011719 139.050781 C 171.714844 138.839844 172.363281 138.261719 172.59375 137.933594 C 172.753906 137.707031 172.921875 137.445312 172.765625 137.257812 L 168.261719 132.230469 C 168.261719 132.230469 167.519531 131.523438 167.765625 131.25 C 168.019531 130.976562 168.476562 131.375 168.804688 131.648438 C 171.097656 133.574219 173.898438 136.476562 173.898438 136.476562 C 173.945312 136.507812 174.128906 136.875 175.167969 137.066406 C 176.058594 137.226562 177.640625 137.136719 178.738281 136.238281 C 179.015625 136.015625 179.292969 135.730469 179.527344 135.4375 C 179.507812 135.453125 179.492188 135.472656 179.476562 135.480469 C 180.632812 134.003906 179.351562 132.503906 179.351562 132.503906 L 174.09375 126.570312 C 174.09375 126.570312 173.339844 125.871094 173.597656 125.59375 C 173.828125 125.347656 174.3125 125.71875 174.640625 125.992188 C 176.308594 127.394531 178.664062 129.765625 180.917969 131.988281 C 181.359375 132.308594 183.34375 133.542969 185.980469 131.820312 C 187.578125 130.777344 187.902344 129.492188 187.859375 128.519531 C 187.753906 127.234375 186.75 126.316406 186.75 126.316406 L 179.5625 119.058594 C 179.5625 119.058594 178.804688 118.40625 179.074219 118.078125 C 179.292969 117.800781 179.785156 118.203125 180.109375 118.476562 C 182.402344 120.398438 188.597656 126.109375 188.597656 126.109375 C 188.6875 126.171875 190.832031 127.703125 193.488281 126.023438 C 194.4375 125.414062 195.046875 124.503906 195.101562 123.441406 C 195.195312 121.601562 193.898438 120.503906 193.898438 120.503906 "/>
<path fill-rule="nonzero" fill="rgb(100%, 100%, 100%)" fill-opacity="1" d="M 158.933594 129.609375 C 157.816406 129.589844 156.59375 130.25 156.433594 130.15625 C 156.34375 130.097656 156.503906 129.648438 156.609375 129.390625 C 156.714844 129.132812 158.199219 124.710938 154.617188 123.164062 C 151.875 121.980469 150.195312 123.304688 149.617188 123.898438 C 149.464844 124.054688 149.398438 124.042969 149.382812 123.84375 C 149.328125 123.046875 148.972656 120.890625 146.605469 120.160156 C 143.222656 119.117188 141.042969 121.476562 140.488281 122.328125 C 140.246094 120.398438 138.617188 118.894531 136.621094 118.890625 C 134.449219 118.882812 132.6875 120.636719 132.679688 122.804688 C 132.675781 124.976562 134.425781 126.738281 136.597656 126.746094 C 137.652344 126.75 138.609375 126.332031 139.320312 125.65625 C 139.339844 125.675781 139.347656 125.710938 139.335938 125.789062 C 139.171875 126.757812 138.855469 130.289062 142.550781 131.734375 C 144.035156 132.3125 145.296875 131.890625 146.34375 131.160156 C 146.65625 130.9375 146.703125 131.03125 146.660156 131.324219 C 146.523438 132.230469 146.691406 134.175781 149.414062 135.289062 C 151.488281 136.136719 152.714844 135.277344 153.519531 134.535156 C 153.871094 134.214844 153.96875 134.269531 153.984375 134.761719 C 154.078125 137.390625 156.253906 139.480469 158.90625 139.488281 C 161.636719 139.496094 163.855469 137.296875 163.863281 134.5625 C 163.871094 131.832031 161.664062 129.644531 158.933594 129.609375 "/>
<path fill-rule="nonzero" fill="rgb(17.060852%, 21.585083%, 51.881409%)" fill-opacity="1" d="M 158.914062 139.136719 C 156.4375 139.128906 154.429688 137.199219 154.34375 134.75 C 154.339844 134.539062 154.316406 133.980469 153.84375 133.980469 C 153.652344 133.980469 153.484375 134.097656 153.285156 134.273438 C 152.742188 134.773438 152.046875 135.285156 151.035156 135.285156 C 150.574219 135.28125 150.078125 135.175781 149.554688 134.960938 C 146.941406 133.894531 146.90625 132.097656 147.015625 131.378906 C 147.046875 131.183594 147.054688 130.984375 146.921875 130.828125 L 146.761719 130.683594 L 146.601562 130.683594 C 146.46875 130.683594 146.332031 130.734375 146.144531 130.867188 C 145.386719 131.398438 144.660156 131.652344 143.925781 131.648438 C 143.519531 131.648438 143.101562 131.566406 142.6875 131.40625 C 139.246094 130.058594 139.527344 126.808594 139.695312 125.835938 C 139.722656 125.632812 139.675781 125.480469 139.546875 125.378906 L 139.304688 125.179688 L 139.078125 125.394531 C 138.40625 126.039062 137.527344 126.394531 136.605469 126.390625 C 134.632812 126.382812 133.03125 124.777344 133.039062 122.804688 C 133.046875 120.835938 134.65625 119.238281 136.628906 119.242188 C 138.40625 119.25 139.921875 120.59375 140.144531 122.371094 L 140.265625 123.332031 L 140.792969 122.519531 C 140.851562 122.425781 142.300781 120.246094 144.957031 120.253906 C 145.460938 120.253906 145.984375 120.339844 146.507812 120.5 C 148.625 121.152344 148.976562 123.070312 149.03125 123.871094 C 149.066406 124.335938 149.398438 124.359375 149.464844 124.359375 C 149.648438 124.359375 149.78125 124.242188 149.878906 124.144531 C 150.277344 123.730469 151.148438 123.035156 152.511719 123.039062 C 153.132812 123.042969 153.796875 123.191406 154.480469 123.488281 C 157.84375 124.941406 156.304688 129.214844 156.285156 129.257812 C 155.996094 129.964844 155.984375 130.277344 156.257812 130.460938 L 156.386719 130.523438 L 156.484375 130.523438 C 156.640625 130.523438 156.828125 130.457031 157.136719 130.351562 C 157.597656 130.195312 158.289062 129.960938 158.933594 129.960938 L 158.9375 129.960938 C 161.46875 129.996094 163.523438 132.058594 163.515625 134.5625 C 163.507812 137.09375 161.445312 139.144531 158.914062 139.136719 M 194.597656 118.617188 C 189.054688 113.757812 176.242188 102.566406 172.773438 99.949219 C 170.785156 98.449219 169.433594 97.65625 168.246094 97.300781 C 167.710938 97.136719 166.972656 96.953125 166.019531 96.949219 C 165.136719 96.945312 164.1875 97.105469 163.195312 97.417969 C 160.945312 98.125 158.703125 99.898438 156.535156 101.613281 L 156.421875 101.703125 C 154.402344 103.300781 152.3125 104.957031 150.734375 105.304688 C 150.046875 105.457031 149.335938 105.535156 148.632812 105.535156 C 146.863281 105.527344 145.277344 105.015625 144.683594 104.253906 C 144.585938 104.128906 144.648438 103.925781 144.878906 103.632812 L 144.910156 103.597656 L 149.808594 98.339844 C 153.644531 94.519531 157.269531 90.917969 165.59375 90.742188 C 165.726562 90.738281 165.867188 90.738281 166.007812 90.738281 C 171.1875 90.753906 176.359375 93.082031 176.941406 93.351562 C 181.789062 95.734375 186.800781 96.945312 191.839844 96.960938 C 197.09375 96.976562 202.515625 95.6875 208.21875 93.078125 C 207.582031 92.539062 206.921875 92.019531 206.242188 91.507812 C 201.230469 93.664062 196.460938 94.75 191.859375 94.738281 C 187.160156 94.722656 182.46875 93.585938 177.914062 91.351562 C 177.675781 91.234375 171.964844 88.527344 166.015625 88.511719 C 165.859375 88.511719 165.699219 88.511719 165.542969 88.515625 C 158.554688 88.664062 154.613281 91.136719 151.960938 93.304688 C 149.382812 93.359375 147.160156 93.976562 145.179688 94.527344 C 143.414062 95.011719 141.890625 95.433594 140.40625 95.429688 C 139.796875 95.425781 138.691406 95.367188 138.59375 95.363281 C 136.886719 95.308594 128.28125 93.179688 121.441406 90.570312 C 120.738281 91.066406 120.066406 91.574219 119.410156 92.09375 C 126.558594 95.042969 135.257812 97.332031 138.003906 97.511719 C 138.769531 97.566406 139.582031 97.652344 140.398438 97.65625 C 142.214844 97.660156 144.027344 97.15625 145.785156 96.667969 C 146.824219 96.378906 147.96875 96.066406 149.171875 95.839844 C 148.851562 96.152344 148.53125 96.472656 148.207031 96.792969 L 143.230469 102.152344 C 142.839844 102.546875 141.988281 103.597656 142.542969 104.894531 C 142.765625 105.417969 143.214844 105.921875 143.847656 106.347656 C 145.027344 107.144531 147.144531 107.6875 149.113281 107.695312 C 149.859375 107.699219 150.566406 107.625 151.214844 107.480469 C 153.300781 107.019531 155.484375 105.285156 157.804688 103.449219 C 159.648438 101.988281 162.273438 100.136719 164.277344 99.597656 C 164.835938 99.445312 165.523438 99.351562 166.078125 99.351562 C 166.242188 99.355469 166.398438 99.359375 166.542969 99.382812 C 167.867188 99.550781 169.148438 100.003906 171.429688 101.726562 C 175.496094 104.796875 193.496094 120.613281 193.671875 120.769531 C 193.6875 120.78125 194.835938 121.773438 194.75 123.425781 C 194.707031 124.34375 194.191406 125.160156 193.304688 125.722656 C 192.535156 126.210938 191.738281 126.457031 190.933594 126.457031 C 189.730469 126.449219 188.902344 125.882812 188.847656 125.84375 C 188.78125 125.792969 182.613281 120.109375 180.347656 118.203125 C 179.984375 117.902344 179.632812 117.628906 179.277344 117.628906 C 179.085938 117.628906 178.917969 117.710938 178.804688 117.851562 C 178.445312 118.292969 178.847656 118.902344 179.316406 119.304688 L 186.519531 126.578125 C 186.527344 126.585938 187.414062 127.421875 187.511719 128.535156 C 187.5625 129.738281 186.988281 130.742188 185.789062 131.523438 C 184.9375 132.082031 184.074219 132.363281 183.230469 132.363281 C 182.121094 132.359375 181.34375 131.855469 181.171875 131.734375 L 180.140625 130.710938 C 178.253906 128.847656 176.300781 126.914062 174.875 125.71875 C 174.527344 125.429688 174.15625 125.160156 173.800781 125.15625 C 173.625 125.15625 173.464844 125.222656 173.34375 125.351562 C 173.183594 125.53125 173.066406 125.855469 173.472656 126.398438 C 173.640625 126.621094 173.835938 126.804688 173.835938 126.804688 L 179.089844 132.734375 C 179.132812 132.785156 180.171875 134.027344 179.203125 135.257812 L 179.015625 135.492188 C 178.859375 135.667969 178.6875 135.828125 178.527344 135.964844 C 177.625 136.699219 176.425781 136.777344 175.949219 136.773438 C 175.695312 136.773438 175.449219 136.753906 175.238281 136.714844 C 174.71875 136.617188 174.367188 136.472656 174.199219 136.273438 L 174.136719 136.207031 C 173.851562 135.90625 171.199219 133.191406 169.007812 131.355469 C 168.71875 131.109375 168.359375 130.804688 167.984375 130.804688 C 167.800781 130.804688 167.636719 130.875 167.507812 131.015625 C 167.074219 131.488281 167.722656 132.203125 168 132.464844 L 172.480469 137.429688 C 172.476562 137.472656 172.421875 137.574219 172.3125 137.730469 C 172.152344 137.949219 171.601562 138.496094 169.972656 138.695312 C 169.777344 138.722656 169.578125 138.730469 169.378906 138.730469 C 167.695312 138.726562 165.90625 137.90625 164.984375 137.417969 C 165.40625 136.527344 165.625 135.550781 165.628906 134.570312 C 165.636719 130.875 162.640625 127.859375 158.945312 127.847656 C 158.867188 127.847656 158.78125 127.851562 158.703125 127.851562 C 158.828125 126.164062 158.597656 122.964844 155.316406 121.550781 C 154.375 121.140625 153.433594 120.933594 152.519531 120.929688 C 151.800781 120.929688 151.113281 121.050781 150.464844 121.296875 C 149.785156 119.972656 148.660156 119.007812 147.1875 118.503906 C 146.375 118.21875 145.566406 118.074219 144.78125 118.074219 C 143.417969 118.070312 142.160156 118.472656 141.035156 119.265625 C 139.960938 117.925781 138.339844 117.132812 136.632812 117.128906 C 135.136719 117.125 133.695312 117.71875 132.625 118.773438 C 131.230469 117.703125 125.691406 114.167969 110.851562 110.761719 C 110.132812 110.597656 108.484375 110.121094 107.476562 109.820312 C 107.304688 110.625 107.175781 111.4375 107.089844 112.257812 C 107.089844 112.257812 109.824219 112.917969 110.363281 113.042969 C 125.523438 116.445312 130.527344 119.957031 131.371094 120.621094 C 131.082031 121.3125 130.933594 122.054688 130.929688 122.800781 C 130.921875 125.933594 133.464844 128.492188 136.597656 128.503906 C 136.949219 128.503906 137.300781 128.472656 137.640625 128.410156 C 138.109375 130.71875 139.613281 132.46875 141.917969 133.371094 C 142.589844 133.632812 143.273438 133.765625 143.941406 133.769531 C 144.375 133.769531 144.808594 133.71875 145.234375 133.609375 C 145.660156 134.691406 146.613281 136.042969 148.757812 136.917969 C 149.507812 137.222656 150.257812 137.382812 150.988281 137.382812 C 151.585938 137.382812 152.164062 137.28125 152.722656 137.078125 C 153.742188 139.582031 156.183594 141.242188 158.90625 141.25 C 160.710938 141.253906 162.445312 140.523438 163.710938 139.226562 C 164.792969 139.828125 167.074219 140.921875 169.382812 140.929688 C 169.679688 140.929688 169.960938 140.910156 170.242188 140.878906 C 172.53125 140.59375 173.605469 139.699219 174.09375 139.003906 C 174.183594 138.882812 174.261719 138.753906 174.332031 138.617188 C 174.871094 138.777344 175.46875 138.902344 176.148438 138.90625 C 177.402344 138.910156 178.601562 138.484375 179.816406 137.605469 C 181.011719 136.75 181.863281 135.515625 181.988281 134.464844 C 181.988281 134.449219 181.992188 134.433594 181.992188 134.417969 C 182.394531 134.503906 182.808594 134.546875 183.21875 134.546875 C 184.507812 134.550781 185.777344 134.152344 186.988281 133.359375 C 189.328125 131.832031 189.738281 129.835938 189.703125 128.523438 C 190.113281 128.609375 190.53125 128.65625 190.945312 128.65625 C 192.15625 128.660156 193.34375 128.296875 194.476562 127.578125 C 195.929688 126.65625 196.804688 125.238281 196.941406 123.589844 C 197.03125 122.472656 196.757812 121.339844 196.167969 120.367188 C 200.085938 118.6875 209.039062 115.445312 219.578125 113.09375 C 219.519531 112.277344 219.402344 111.46875 219.257812 110.667969 C 206.503906 113.464844 196.984375 117.5625 194.597656 118.617188 "/>
<path fill-rule="nonzero" fill="rgb(17.060852%, 21.585083%, 51.881409%)" fill-opacity="1" d="M 246.882812 195.804688 C 245.855469 197.164062 244.382812 197.84375 242.464844 197.839844 C 240.554688 197.832031 239.082031 197.148438 238.050781 195.785156 C 237.015625 194.425781 236.507812 192.484375 236.511719 189.976562 C 236.519531 187.472656 237.035156 185.542969 238.074219 184.191406 C 239.113281 182.839844 240.589844 182.164062 242.503906 182.167969 C 244.421875 182.171875 245.886719 182.851562 246.910156 184.210938 C 247.929688 185.566406 248.441406 187.5 248.433594 190.003906 C 248.429688 192.511719 247.910156 194.449219 246.882812 195.804688 M 252.152344 180.628906 C 250.046875 177.972656 246.839844 176.644531 242.535156 176.636719 C 238.234375 176.625 235.019531 177.941406 232.902344 180.585938 C 230.78125 183.222656 229.714844 186.351562 229.707031 189.964844 C 229.699219 193.636719 230.75 196.777344 232.859375 199.394531 C 234.964844 202.007812 238.175781 203.320312 242.476562 203.328125 C 246.78125 203.339844 249.992188 202.039062 252.113281 199.4375 C 254.234375 196.832031 255.292969 193.695312 255.304688 190.019531 C 255.3125 186.410156 254.261719 183.277344 252.152344 180.628906 "/>
<path fill-rule="nonzero" fill="rgb(17.060852%, 21.585083%, 51.881409%)" fill-opacity="1" d="M 194.777344 192.597656 C 194.726562 194.792969 194.09375 196.304688 192.882812 197.132812 C 191.671875 197.960938 190.351562 198.375 188.917969 198.371094 C 188.011719 198.367188 187.242188 198.113281 186.613281 197.617188 C 185.980469 197.113281 185.667969 196.304688 185.671875 195.179688 C 185.675781 193.921875 186.191406 192.992188 187.230469 192.394531 C 187.84375 192.046875 188.851562 191.746094 190.25 191.507812 L 191.746094 191.234375 C 192.492188 191.09375 193.082031 190.945312 193.507812 190.785156 C 193.941406 190.625 194.363281 190.417969 194.78125 190.15625 Z M 198.140625 178.289062 C 195.996094 177.199219 193.546875 176.644531 190.785156 176.640625 C 186.539062 176.628906 183.542969 177.730469 181.796875 179.9375 C 180.695312 181.351562 180.078125 183.152344 179.929688 185.351562 L 186.269531 185.367188 C 186.425781 184.398438 186.738281 183.628906 187.210938 183.0625 C 187.863281 182.296875 188.976562 181.914062 190.550781 181.917969 C 191.953125 181.921875 193.015625 182.117188 193.738281 182.515625 C 194.460938 182.90625 194.824219 183.621094 194.820312 184.644531 C 194.820312 185.492188 194.347656 186.113281 193.402344 186.511719 C 192.875 186.742188 192 186.929688 190.773438 187.082031 L 188.527344 187.351562 C 185.972656 187.667969 184.03125 188.203125 182.714844 188.957031 C 180.3125 190.332031 179.109375 192.5625 179.101562 195.652344 C 179.09375 198.03125 179.835938 199.875 181.328125 201.175781 C 182.8125 202.476562 184.707031 203.027344 186.992188 203.136719 C 201.328125 203.808594 201.183594 195.613281 201.320312 193.910156 L 201.339844 184.476562 C 201.347656 181.453125 200.277344 179.390625 198.140625 178.289062 "/>
<path fill-rule="nonzero" fill="rgb(17.060852%, 21.585083%, 51.881409%)" fill-opacity="1" d="M 165.4375 182.203125 C 167.074219 182.207031 168.28125 182.714844 169.054688 183.726562 C 169.585938 184.476562 169.917969 185.324219 170.042969 186.257812 L 177.117188 186.277344 C 176.734375 182.707031 175.492188 180.214844 173.386719 178.796875 C 171.277344 177.386719 168.570312 176.671875 165.257812 176.664062 C 161.363281 176.65625 158.300781 177.847656 156.085938 180.230469 C 153.863281 182.617188 152.75 185.957031 152.738281 190.25 C 152.730469 194.054688 153.726562 197.15625 155.726562 199.550781 C 157.726562 201.945312 160.847656 203.144531 165.097656 203.15625 C 169.351562 203.164062 172.566406 201.742188 174.734375 198.882812 C 176.097656 197.109375 176.859375 195.226562 177.023438 193.234375 L 169.976562 193.21875 C 169.832031 194.535156 169.417969 195.609375 168.730469 196.433594 C 168.050781 197.253906 166.902344 197.667969 165.285156 197.664062 C 163 197.660156 161.449219 196.617188 160.628906 194.527344 C 160.179688 193.414062 159.953125 191.941406 159.957031 190.105469 C 159.960938 188.183594 160.195312 186.640625 160.648438 185.476562 C 161.511719 183.292969 163.109375 182.199219 165.4375 182.203125 "/>
<path fill-rule="nonzero" fill="rgb(17.060852%, 21.585083%, 51.881409%)" fill-opacity="1" d="M 150.875 176.632812 C 136.347656 176.601562 137.175781 189.464844 137.175781 189.464844 L 137.148438 202.527344 L 143.742188 202.542969 L 143.769531 190.289062 C 143.773438 188.285156 144.03125 186.796875 144.535156 185.828125 C 145.445312 184.117188 147.210938 183.261719 149.847656 183.269531 C 150.046875 183.269531 150.308594 183.28125 150.628906 183.296875 C 150.953125 183.3125 151.316406 183.34375 151.734375 183.394531 L 151.75 176.683594 C 151.457031 176.664062 151.269531 176.65625 151.1875 176.648438 C 151.101562 176.640625 150.996094 176.632812 150.875 176.632812 "/>
<path fill-rule="nonzero" fill="rgb(17.060852%, 21.585083%, 51.881409%)" fill-opacity="1" d="M 117.78125 183.386719 C 118.710938 182.4375 120.011719 181.960938 121.691406 181.964844 C 123.238281 181.96875 124.535156 182.417969 125.574219 183.324219 C 126.613281 184.222656 127.195312 185.546875 127.308594 187.28125 L 116.027344 187.257812 C 116.265625 185.628906 116.855469 184.339844 117.78125 183.386719 M 126.617188 195.679688 C 126.335938 196.074219 126.039062 196.414062 125.710938 196.675781 C 124.777344 197.4375 123.511719 197.671875 122.019531 197.667969 C 120.613281 197.664062 119.511719 197.445312 118.515625 196.816406 C 116.871094 195.800781 115.949219 194.089844 115.859375 191.578125 L 134.097656 191.617188 C 134.128906 189.457031 134.0625 187.800781 133.890625 186.648438 C 133.59375 184.6875 132.929688 182.953125 131.910156 181.46875 C 130.773438 179.773438 129.332031 178.539062 127.589844 177.75 C 125.84375 176.96875 123.882812 176.570312 121.703125 176.566406 C 118.03125 176.558594 115.046875 177.710938 112.742188 180.015625 C 110.4375 182.328125 109.273438 185.652344 109.265625 189.988281 C 109.253906 194.621094 110.523438 197.964844 113.066406 200.023438 C 115.605469 202.082031 118.550781 203.117188 121.878906 203.125 C 125.917969 203.132812 129.0625 201.925781 131.3125 199.492188 C 132.523438 198.214844 133.285156 196.945312 133.605469 195.695312 Z M 126.617188 195.679688 "/>
<path fill-rule="nonzero" fill="rgb(17.060852%, 21.585083%, 51.881409%)" fill-opacity="1" d="M 106.589844 202.457031 L 100.566406 202.445312 L 100.601562 187.28125 C 100.605469 185.898438 100.15625 182.601562 96.183594 182.59375 C 93.535156 182.585938 91.613281 184.492188 91.609375 187.261719 L 91.574219 202.425781 L 85.542969 202.410156 L 85.578125 187.25 C 85.582031 185.863281 85.179688 182.566406 81.207031 182.558594 C 78.515625 182.550781 76.640625 184.460938 76.632812 187.230469 L 76.597656 202.390625 L 70.570312 202.378906 L 70.605469 187.359375 C 70.617188 181.101562 74.785156 176.375 81.222656 176.390625 C 84.417969 176.398438 87.015625 177.746094 88.703125 179.902344 C 90.484375 177.753906 93.136719 176.417969 96.199219 176.425781 C 102.769531 176.4375 106.636719 180.988281 106.625 187.441406 Z M 106.589844 202.457031 "/>
<path fill-rule="nonzero" fill="rgb(17.060852%, 21.585083%, 51.881409%)" fill-opacity="1" d="M 219.828125 195.800781 C 218.863281 197.175781 217.445312 197.863281 215.597656 197.859375 C 213.742188 197.855469 212.359375 197.15625 211.453125 195.769531 C 210.546875 194.378906 210.097656 192.359375 210.101562 190.046875 C 210.105469 187.902344 210.554688 186.109375 211.453125 184.664062 C 212.351562 183.21875 213.757812 182.496094 215.675781 182.5 C 216.933594 182.503906 218.035156 182.902344 218.984375 183.703125 C 220.527344 185.023438 221.292969 187.386719 221.285156 190.453125 C 221.28125 192.640625 220.792969 194.425781 219.828125 195.800781 M 227.792969 168.886719 C 227.792969 168.886719 221.15625 168.164062 221.144531 173.496094 L 221.121094 180.558594 C 220.390625 179.378906 219.4375 178.449219 218.257812 177.785156 C 217.082031 177.117188 215.738281 176.777344 214.21875 176.773438 C 210.921875 176.765625 208.292969 177.988281 206.316406 180.433594 C 204.34375 182.878906 203.355469 186.414062 203.34375 190.683594 C 203.335938 194.390625 204.328125 197.433594 206.320312 199.804688 C 208.316406 202.171875 212.234375 203.21875 215.714844 203.226562 C 227.851562 203.253906 227.734375 192.84375 227.734375 192.84375 Z M 227.792969 168.886719 "/>
<path fill-rule="nonzero" fill="rgb(17.060852%, 21.585083%, 51.881409%)" fill-opacity="1" d="M 128.957031 224.5 C 128.964844 222.007812 128.484375 220.09375 127.511719 218.75 C 126.542969 217.410156 125.15625 216.730469 123.34375 216.726562 C 121.597656 216.722656 120.234375 217.394531 119.257812 218.730469 C 118.347656 219.945312 117.898438 221.863281 117.890625 224.472656 C 117.886719 226.90625 118.363281 228.722656 119.332031 229.9375 C 120.296875 231.28125 121.691406 231.957031 123.503906 231.960938 C 125.183594 231.964844 126.511719 231.296875 127.488281 229.957031 C 128.464844 228.617188 128.953125 226.804688 128.957031 224.5 M 117.851562 242.339844 C 117.847656 243.238281 117.523438 244 116.871094 244.636719 C 116.226562 245.277344 115.445312 245.59375 114.539062 245.589844 L 111.242188 245.585938 L 111.292969 222.636719 C 111.300781 218.175781 112.8125 215.382812 115.292969 213.5 C 116.933594 212.253906 119.371094 211.066406 123.941406 211.078125 C 127.023438 211.085938 130.628906 212.289062 132.574219 214.671875 C 134.757812 217.351562 135.660156 220.332031 135.652344 224.226562 C 135.640625 228.253906 134.667969 231.5 132.722656 233.992188 C 130.777344 236.417969 128.277344 237.621094 125.234375 237.613281 C 123.621094 237.609375 122.199219 237.320312 120.96875 236.746094 C 119.671875 236.101562 118.644531 235.109375 117.871094 233.765625 Z M 117.851562 242.339844 "/>
<path fill-rule="nonzero" fill="rgb(17.060852%, 21.585083%, 51.881409%)" fill-opacity="1" d="M 168.539062 224.59375 C 168.527344 228.992188 169.792969 231.433594 172.335938 231.921875 C 174.875 232.398438 176.753906 231.8125 177.964844 230.160156 C 178.539062 229.464844 178.949219 228.359375 179.210938 226.867188 C 179.464844 225.367188 179.488281 223.882812 179.265625 222.417969 C 179.050781 220.945312 178.527344 219.636719 177.703125 218.484375 C 176.882812 217.335938 175.675781 216.753906 174.085938 216.753906 C 171.925781 216.746094 170.460938 217.546875 169.695312 219.132812 C 168.925781 220.730469 168.542969 222.546875 168.539062 224.59375 M 179.382812 235.617188 L 179.386719 234 C 178.238281 235.785156 176.691406 236.890625 174.753906 237.335938 C 172.8125 237.773438 170.890625 237.613281 168.992188 236.839844 C 167.082031 236.074219 165.445312 234.648438 164.085938 232.574219 C 162.722656 230.492188 162.046875 227.761719 162.054688 224.378906 C 162.0625 220.429688 162.976562 217.222656 164.792969 214.769531 C 166.609375 212.320312 169.523438 211.203125 173.527344 211.105469 C 177.472656 211.007812 179.765625 211.90625 182.007812 213.613281 C 184.457031 215.484375 185.902344 218.347656 185.894531 222.808594 L 185.863281 236.308594 C 185.863281 240.601562 182.851562 248.558594 173.445312 247.863281 C 167.617188 247.425781 164.386719 245.03125 162.59375 239.605469 L 169.550781 239.621094 C 170.058594 240.515625 170.835938 241.203125 171.890625 241.679688 C 172.929688 242.164062 173.984375 242.292969 175.027344 242.070312 C 176.074219 241.851562 177.03125 241.230469 177.894531 240.210938 C 178.753906 239.195312 179.25 237.664062 179.382812 235.617188 "/>
<path fill-rule="nonzero" fill="rgb(17.060852%, 21.585083%, 51.881409%)" fill-opacity="1" d="M 153.0625 227.21875 C 153.015625 229.421875 152.382812 230.929688 151.171875 231.761719 C 149.957031 232.589844 148.632812 233.003906 147.199219 233 C 146.289062 233 145.519531 232.742188 144.890625 232.246094 C 144.257812 231.742188 143.941406 230.929688 143.945312 229.804688 C 143.949219 228.546875 144.464844 227.617188 145.503906 227.015625 C 146.121094 226.664062 147.128906 226.363281 148.53125 226.125 L 150.03125 225.851562 C 150.78125 225.710938 151.367188 225.5625 151.792969 225.398438 C 152.230469 225.246094 152.648438 225.035156 153.070312 224.769531 Z M 156.429688 212.886719 C 154.289062 211.796875 151.832031 211.238281 149.070312 211.230469 C 144.816406 211.222656 141.816406 212.328125 140.0625 214.535156 C 138.960938 215.953125 138.339844 217.757812 138.191406 219.960938 L 144.546875 219.972656 C 144.703125 219.003906 145.019531 218.234375 145.488281 217.667969 C 146.144531 216.898438 147.257812 216.519531 148.832031 216.519531 C 150.242188 216.523438 151.300781 216.722656 152.027344 217.117188 C 152.75 217.511719 153.113281 218.222656 153.109375 219.253906 C 153.109375 220.101562 152.636719 220.722656 151.6875 221.121094 C 151.160156 221.351562 150.285156 221.539062 149.054688 221.695312 L 146.804688 221.960938 C 144.246094 222.28125 142.300781 222.816406 140.988281 223.566406 C 138.578125 224.949219 137.375 227.183594 137.367188 230.277344 C 137.359375 232.660156 138.101562 234.503906 139.59375 235.808594 C 141.082031 237.113281 142.980469 237.664062 145.269531 237.773438 C 159.625 238.449219 159.480469 230.238281 159.617188 228.53125 L 159.636719 219.082031 C 159.644531 216.050781 158.578125 213.988281 156.429688 212.886719 "/>
<path fill-rule="nonzero" fill="rgb(17.060852%, 21.585083%, 51.881409%)" fill-opacity="1" d="M 205.609375 230.292969 C 204.578125 231.65625 203.105469 232.332031 201.1875 232.328125 C 199.269531 232.324219 197.792969 231.640625 196.761719 230.273438 C 195.726562 228.910156 195.214844 226.96875 195.222656 224.457031 C 195.226562 221.945312 195.746094 220.015625 196.789062 218.660156 C 197.824219 217.304688 199.304688 216.632812 201.222656 216.636719 C 203.140625 216.640625 204.609375 217.320312 205.632812 218.679688 C 206.65625 220.039062 207.167969 221.972656 207.160156 224.484375 C 207.15625 226.996094 206.636719 228.9375 205.609375 230.292969 M 210.890625 215.089844 C 208.777344 212.433594 205.566406 211.101562 201.253906 211.089844 C 196.949219 211.082031 193.730469 212.398438 191.605469 215.046875 C 189.480469 217.695312 188.414062 220.824219 188.40625 224.441406 C 188.398438 228.121094 189.449219 231.265625 191.5625 233.890625 C 193.675781 236.5 196.886719 237.820312 201.191406 237.828125 C 205.503906 237.839844 208.722656 236.535156 210.847656 233.933594 C 212.96875 231.320312 214.03125 228.179688 214.039062 224.5 C 214.046875 220.882812 213 217.746094 210.890625 215.089844 "/>
</svg>
